PathFileType	4	(X/Y/Z)	C:/Users/beibeiliu/ov580/test_trc/User2\sequence.7_training_dense_right.trc
DataRate	CameraRate	NumFrames	NumMarkers	Units	OrigDataRate	OrigDataStartFrame	OrigNumFrames
120	120	12	19	mm	120	53	79
Frame#	Time	ThumbCMC			ThumbMCP			ThumbIP			ThumbTip			IndexMCP			IndexPIP			IndexTip			MiddleMCP			MiddlePIP			MiddleTip			RingMCP			RingPIP			RingTip			PinkyMCP			PinkyPIP			PinkyTip			BackHand1			BackHand2			BackHand3	
		X0	Y0	Z0	X1	Y1	Z1	X2	Y2	Z2	X3	Y3	Z3	X4	Y4	Z4	X5	Y5	Z5	X6	Y6	Z6	X7	Y7	Z7	X8	Y8	Z8	X9	Y9	Z9	X10	Y10	Z10	X11	Y11	Z11	X12	Y12	Z12	X13	Y13	Z13	X14	Y14	Z14	X15	Y15	Z15	X16	Y16	Z16	X17	Y17	Z17	X18	Y18	Z18	
52	0.433333	138.294	45.8079	-25.2523	122.002	58.9017	-48.4223	102.868	63.2945	-74.2304	88.88	73.2658	-91.1779	85.9735	0.364944	-78.7965	61.3997	6.6018	-60.1048	88.3684	15.5646	-34.5026	83.5609	-20.8452	-70.0479	60.2635	-8.62298	-47.6761	90.5033	4.1387	-22.0495	79.6701	-33.4555	-51.8832	66.1102	-19.1479	-29.1727	99.9386	-7.40844	-16.4644	86.9425	-43.7097	-35.7151	74.5411	-23.8344	-13.3131	105.106	-14.4883	-5.80522	144.633	-29.7981	-35.5497	165.402	-13.942	-7.50631	153.971	9.48936	-34.1984	
53	0.441667	147.354	42.4986	-29.3195	135.217	57.0612	-54.5665	118.568	63.4776	-80.4191	104.467	70.2237	-104.107	97.4107	-0.401429	-84.7481	69.5294	3.07741	-70.9437	89.9182	14.6924	-43.0248	91.1485	-18.238	-76.0861	64.8821	-7.01003	-50.2162	94.4044	4.33861	-27.2774	81.927	-34.4907	-55.191	68.5363	-18.139	-34.2473	103.694	-4.14988	-24.3415	88.9191	-44.9127	-37.8012	75.55	-24.5571	-16.1463	105.926	-12.7745	-10.4384	149.023	-32.0296	-35.2222	168.423	-19.1033	-10.1181	161.656	7.56476	-39.4074	
54	0.45	150.811	37.771	-30.6997	140.69	50.7891	-55.2521	127.469	58.5905	-88.0475	115.832	66.4068	-105.553	104.088	-5.5296	-92.051	77.4264	2.00087	-76.7907	95.6053	13.3685	-50.478	98.8566	-22.7946	-82.8787	73.0215	-10.2305	-59.6027	97.7896	4.65536	-36.7655	91.2085	-35.1844	-63.8438	75.146	-23.0085	-42.3074	105.499	-8.30133	-28.4135	93.3465	-46.4627	-46.0716	82.8086	-24.8087	-25.3067	115.602	-18.2185	-15.0458	153.484	-32.1983	-41.0177	172.562	-21.9904	-10.2842	166.951	4.68264	-43.2866	
55	0.458333	149.375	36.6931	-31.2564	140.052	48.8255	-58.574	128.32	59.9145	-86.0986	116.54	63.9372	-110.174	115.783	-4.44427	-98.122	87.5309	-5.82927	-86.1488	99.2411	7.56372	-56.9581	111.622	-25.7954	-89.0731	82.1327	-18.2229	-70.6445	106.288	-1.37748	-41.0481	106.294	-43.1161	-70.8526	84.8108	-24.8125	-53.248	112.437	-14.6753	-32.0469	108.317	-51.7518	-54.9606	89.3185	-33.7261	-32.8285	116.935	-19.4165	-22.9283	163.697	-32.4797	-43.9522	176.735	-19.3113	-10.7053	170.35	10.107	-42.6123	
56	0.466667	146.115	37.9345	-29.9618	134.592	51.6166	-56.0855	124.825	59.4967	-85.87	113.894	67.2601	-107.081	125.25	-4.7886	-101.161	96.4969	-7.79736	-95.6949	103.648	5.30755	-60.7273	124.778	-24.9302	-94.624	93.3644	-26.6104	-79.3561	108.209	-6.30122	-47.1111	120.644	-40.9553	-79.6289	94.5202	-36.5506	-59.7917	117.037	-19.6508	-37.7513	122.257	-52.2818	-64.1805	98.8187	-42.0636	-42.463	123.469	-27.183	-25.4425	172.591	-27.233	-43.2154	182.236	-14.5569	-12.293	172.192	12.4476	-39.8977	
57	0.475	140.893	39.6335	-26.3703	129.933	53.6308	-54.9788	118.77	64.4535	-85.9765	108.801	67.7434	-101.541	135.012	4.36746	-103.864	105.652	-10.0446	-99.641	109.678	1.49777	-64.2679	137.54	-21.4357	-98.5478	103.469	-26.9115	-85.0595	114.541	-10.9749	-51.4168	136.333	-40.6101	-85.3018	107.741	-39.9045	-70.6439	124.015	-16.7629	-45.0971	136.547	-54.2817	-71.8336	112.21	-43.1287	-54.5186	132.32	-24.598	-31.1956	181.014	-14.7903	-45.7214	186.211	-8.92518	-14.637	173.338	19.4427	-37.1776	
58	0.483333	135.596	37.9489	-25.5624	120.302	51.1034	-47.6837	108.823	64.6434	-76.0858	99.6073	67.9278	-98.6655	142.132	11.894	-102.831	112.906	-4.93509	-103.233	111.973	1.78946	-68.8372	150.607	-9.49218	-101.316	117.981	-27.894	-90.8047	120.288	-7.50519	-55.434	149.865	-28.0488	-92.8747	123.86	-39.4052	-76.5629	130.964	-18.915	-49.6847	155.912	-46.0654	-78.421	127.177	-44.9785	-61.2995	138.091	-26.0339	-35.5315	187.768	-5.9689	-43.7446	189.558	0.428252	-8.16228	171.555	28.7633	-31.1646	
59	0.491667	128.166	35.1963	-19.2235	109.313	50.0763	-41.1069	99.76	57.9008	-72.159	86.013	64.9964	-89.1313	139.944	26.5662	-100.416	120.812	1.36904	-105.062	117.243	0.0334906	-68.191	153.103	2.89495	-102.803	126.565	-20.2817	-96.1946	124.18	-10.8517	-58.5466	160.272	-18.0464	-95.1233	134.856	-34.4028	-83.0207	138.535	-18.5474	-51.0936	170.082	-32.4347	-81.4973	140.515	-42.6061	-67.7211	144.191	-23.8414	-42.447	188.463	9.79293	-45.558	189.181	10.7626	-5.60643	166.808	36.4434	-24.2939	
60	0.5	115.456	34.7337	-9.78206	99.8148	43.2893	-33.4637	81.3799	56.2104	-59.4705	66.0272	62.7559	-78.8387	133.348	34.1661	-97.04	114.578	7.21002	-100.844	110.902	3.90933	-64.8816	148.691	19.9799	-97.4408	125.792	-8.88873	-98.3061	126.761	-6.14938	-54.0297	158.707	-5.99979	-95.572	139.295	-25.2163	-84.9499	140.659	-12.703	-50.3041	172.991	-18.4775	-81.6586	143.226	-30.6782	-69.7661	147.602	-22.3151	-41.2205	184.818	22.7919	-39.4457	184.29	20.1137	-2.844	156.214	43.7674	-20.85	
61	0.508333	106.698	33.2539	-7.16853	82.6348	41.1945	-22.4552	63.0403	53.0278	-49.3534	52.7472	55.6519	-69.3184	119.7	44.6698	-87.2444	110.447	13.1474	-99.2478	104.914	4.90423	-66.7703	141.593	27.4924	-92.2571	120.012	-3.58884	-95.4049	118.926	-3.7454	-55.8304	150.571	9.4142	-92.1307	135.245	-15.61	-88.4018	135.701	-9.87327	-51.0492	164.389	-3.87479	-83.2663	145.487	-26.1532	-73.8538	144.814	-12.8203	-39.5247	174.312	31.4011	-36.5096	175.621	26.5377	-0.397757	141.018	47.6223	-13.3442	
62	0.516667	98.1835	30.5855	-0.790027	75.495	36.8897	-18.1644	52.9108	49.8658	-44.5025	38.3415	53.0759	-60.8386	111.694	47.0935	-82.4714	104.098	20.7471	-98.3057	99.6336	5.58889	-63.7	130.535	32.8762	-93.9714	115.535	1.69586	-94.9095	117.852	-1.44852	-52.6692	147.725	16.5854	-89.3031	128.664	-10.5882	-85.4332	132.453	-4.04056	-47.6089	163.792	4.25967	-81.442	140.76	-19.7911	-73.5444	140.844	-8.90531	-41.8802	165.054	37.0779	-29.8165	170.092	29.1722	4.83999	133.281	46.4587	-10.6406	
63	0.525	92.7463	26.7997	-0.109004	70.2521	33.1892	-16.6491	46.1539	44.1528	-38.4816	29.2167	48.8557	-58.4718	106.114	48.183	-80.5331	94.2406	20.2805	-96.5695	100.837	6.67514	-62.5631	126.576	37.0128	-88.9321	115.498	5.86254	-96.4942	116.871	-1.70688	-51.9756	144.823	21.9029	-87.6535	132.103	-7.12538	-88.1121	130.64	-5.74551	-52.4772	161.045	10.8176	-80.5751	140.948	-13.2349	-78.7829	138.966	-12.2878	-45.0026	160.176	42.2589	-29.899	163.308	30.0527	7.21379	124.819	45.677	-7.37889	
